<svg width="90" height="90" viewBox="0 0 90 90" fill="none" xmlns="http://www.w3.org/2000/svg">
<g clip-path="url(#clip0_37_4320)">
<path d="M48.6837 0V10.138H72.6935L54.8712 27.9603C49.1505 23.7162 42.0678 21.2048 34.3978 21.2048C15.4004 21.2048 0 36.605 0 55.6024C0 74.5996 15.4004 90 34.3976 90C53.3948 90 68.7952 74.5996 68.7952 55.6024C68.7952 47.9324 66.2838 40.8495 62.0397 35.1288L79.862 17.3067V41.3165H90V0L48.6837 0ZM34.3976 78.6713C21.657 78.6713 11.3286 68.3429 11.3286 55.6022C11.3286 42.8616 21.657 32.5332 34.3976 32.5332C47.1382 32.5332 57.4666 42.8616 57.4666 55.6022C57.4666 68.343 47.1382 78.6713 34.3976 78.6713Z" fill="#808080"/>
</g>
<defs>
<clipPath id="clip0_37_4320">
<rect width="90" height="90" fill="white"/>
</clipPath>
</defs>
</svg>
