<svg width="116" height="116" viewBox="0 0 116 116" fill="none" xmlns="http://www.w3.org/2000/svg">
<path fill-rule="evenodd" clip-rule="evenodd" d="M11.8923 18.9495C6.25665 24.5851 3.09082 32.2266 3.09082 40.1943C3.09082 48.1621 6.25665 55.8036 11.8923 61.4393L52.8742 102.421C54.2323 103.782 56.0763 104.545 57.9999 104.545C59.9236 104.545 61.7675 103.782 63.1257 102.421C73.5294 92.0174 104.108 61.4393 104.108 61.4393C109.743 55.8036 112.909 48.1621 112.909 40.1943C112.909 32.2266 109.743 24.5851 104.108 18.9495C98.4743 13.3162 90.8327 10.1504 82.8626 10.1504C74.8948 10.1504 67.2533 13.3162 61.6201 18.9495L57.9999 22.5696L54.3798 18.9495C48.7465 13.3162 41.105 10.1504 33.1373 10.1504C25.1671 10.1504 17.5256 13.3162 11.8923 18.9495ZM100.69 22.3691V22.3666C95.9634 17.6396 89.5495 14.9837 82.8626 14.9837C76.1781 14.9837 69.7642 17.6396 65.0372 22.3666L59.7085 27.6953C58.766 28.6403 57.2338 28.6403 56.2913 27.6953L50.9626 22.3666C46.2356 17.6396 39.8218 14.9837 33.1373 14.9837C26.4504 14.9837 20.0365 17.6396 15.3095 22.3666V22.3691C10.5825 27.0961 7.92415 33.5074 7.92415 40.1943C7.92415 46.8813 10.5825 53.2927 15.3095 58.0221L56.2913 99.004C56.7433 99.4559 57.3595 99.7121 57.9999 99.7121C58.6403 99.7121 59.2566 99.4559 59.7085 99.004C70.1123 88.6002 100.69 58.0221 100.69 58.0221C105.417 53.2927 108.076 46.8813 108.076 40.1943C108.076 33.5074 105.417 27.0961 100.69 22.3691Z" fill="black"/>
</svg>
