<svg width="90" height="90" viewBox="0 0 90 90" fill="none" xmlns="http://www.w3.org/2000/svg">
<path d="M73.125 28.125C73.125 12.5912 60.5338 0 45 0C44.9982 0 44.9982 0 44.9965 0C29.4645 0.00175781 16.875 12.593 16.875 28.125C16.875 41.7322 26.5377 53.0807 39.375 55.6875V67.5H28.125V78.75H39.375V90H50.625V78.75H61.875V67.5H50.625V55.6875C63.4623 53.0807 73.125 41.7322 73.125 28.125ZM45 45C44.9982 45 44.9982 45 44.9965 45C35.6783 44.9982 28.125 37.4432 28.125 28.125C28.125 18.8068 35.6783 11.2518 44.9965 11.25H45C54.3199 11.25 61.875 18.8051 61.875 28.125C61.875 37.4449 54.3199 45 45 45Z" fill="#17AB90"/>
</svg>
