<svg width="24" height="25" viewBox="0 0 24 25" fill="none" xmlns="http://www.w3.org/2000/svg">
<path d="M17.4738 10.0951L17.362 9.97961L17.3412 9.96165C15.7196 8.5551 14.931 6.44493 15.1777 4.17212L15.4679 1.5L12.9795 2.90286C10.3351 4.39368 8.59403 7.15559 8.30102 10.2438L5.50892 9.39198L5.29093 9.91214C4.41254 12.0072 3.97849 14.0183 4.00082 15.8898C4.02524 17.9312 4.80836 19.8453 6.20594 21.2797C7.60078 22.7115 9.44623 23.5 11.402 23.5H12.5986C16.6571 23.5 19.9772 20.0831 19.9999 15.8829C20.0125 13.5161 19.186 11.6227 17.4738 10.0951ZM11.701 22.2079C10.1906 22.2079 8.94647 20.9303 8.92768 19.3597C8.91997 18.7162 9.04302 18.0243 9.29394 17.2971L11.0488 17.8323L11.0562 16.9788C11.0669 15.7398 11.6655 14.5956 12.639 13.9146C12.6361 15.175 13.1382 16.3269 14.0568 17.1348L14.0929 17.172L14.1275 17.2051C14.7859 17.7894 15.0773 18.4549 15.0725 19.3629C15.064 20.9318 13.82 22.2079 12.2994 22.2079H11.701ZM15.8701 21.2321C16.1472 20.6723 16.3054 20.0397 16.309 19.3703C16.3159 18.0898 15.8701 17.0646 14.9463 16.2366L14.8887 16.1772L14.868 16.1594C14.1283 15.5175 13.7831 14.5907 13.896 13.5495L14.1077 11.5992L12.3429 12.5942C11.0401 13.3287 10.1476 14.6405 9.89361 16.134L8.58037 15.7334L8.36238 16.2534C7.90536 17.3434 7.6795 18.3939 7.69139 19.376C7.6991 20.0271 7.84946 20.6543 8.12608 21.2186C6.41574 20.0932 5.26426 18.118 5.23727 15.8737C5.21896 14.3406 5.54731 12.6877 6.21365 10.953L9.48671 11.9515L9.4941 11.098C9.5198 8.14622 11.0803 5.44171 13.5667 4.04002L13.9726 3.81108L13.9492 4.0266C13.6557 6.73044 14.5962 9.24747 16.5305 10.9375L16.6208 11.0308L16.6553 11.0639C18.1041 12.3494 18.774 13.8785 18.7634 15.8757C18.7512 18.1281 17.5959 20.1092 15.8701 21.2321Z" fill="#17AB90"/>
</svg>
